<svg width="20" height="20" viewBox="0 0 20 20" fill="none" xmlns="http://www.w3.org/2000/svg">
<path fill-rule="evenodd" clip-rule="evenodd" d="M13.1432 12.7795C13.0816 12.718 13.0772 12.6147 13.1345 12.5503C13.1345 12.5503 13.2376 12.4367 13.3353 12.3165C14.3047 11.1226 14.8857 9.60059 14.8857 7.94286C14.8857 4.10842 11.7773 1 7.94286 1C4.10842 1 1 4.10842 1 7.94286C1 11.7773 4.10842 14.8857 7.94286 14.8857C9.633 14.8857 11.1821 14.2818 12.3861 13.278C12.482 13.198 12.5515 13.1342 12.5515 13.1342C12.6126 13.0797 12.7174 13.081 12.7795 13.1432L18.561 18.9247C18.6615 19.0251 18.8243 19.0251 18.9247 18.9247C19.0251 18.8243 19.0251 18.6615 18.9247 18.561L13.1432 12.7795ZM14.3714 7.94284C14.3714 11.4932 11.4932 14.3714 7.94284 14.3714C4.39244 14.3714 1.51427 11.4932 1.51427 7.94284C1.51427 4.39244 4.39244 1.51427 7.94284 1.51427C11.4932 1.51427 14.3714 4.39244 14.3714 7.94284Z" fill="#4F4F4F"/>
<path d="M13.1345 12.5503L12.7643 12.2142L12.7609 12.218L13.1345 12.5503ZM13.1432 12.7795L13.4967 12.4259L13.1432 12.7795ZM13.3353 12.3165L12.9471 12.0013L13.3353 12.3165ZM12.3861 13.278L12.0659 12.8939L12.0659 12.8939L12.3861 13.278ZM12.5515 13.1342L12.2185 12.761L12.2131 12.766L12.5515 13.1342ZM12.7795 13.1432L12.4259 13.4967L12.7795 13.1432ZM18.561 18.9247L18.9146 18.5711L18.9146 18.5711L18.561 18.9247ZM18.9247 18.9247L18.5711 18.5711L18.5711 18.5711L18.9247 18.9247ZM18.9247 18.561L18.5711 18.9146L18.5711 18.9146L18.9247 18.561ZM12.7609 12.218C12.5214 12.4873 12.5475 12.8909 12.7896 13.1331L13.4967 12.4259C13.6158 12.545 13.6329 12.7422 13.5081 12.8825L12.7609 12.218ZM12.9471 12.0013C12.9035 12.055 12.8576 12.1085 12.8219 12.1493C12.8043 12.1695 12.7895 12.1861 12.7793 12.1975C12.7742 12.2032 12.7703 12.2076 12.7677 12.2104C12.7664 12.2119 12.7655 12.2129 12.7649 12.2135C12.7646 12.2138 12.7644 12.2141 12.7643 12.2142C12.7643 12.2142 12.7643 12.2142 12.7643 12.2143C12.7643 12.2143 12.7643 12.2142 12.7643 12.2142C12.7643 12.2142 12.7643 12.2142 12.7643 12.2142C12.7643 12.2142 12.7643 12.2142 12.7643 12.2142C12.7643 12.2142 12.7643 12.2142 13.1345 12.5503C13.5047 12.8864 13.5047 12.8863 13.5047 12.8863C13.5047 12.8863 13.5047 12.8863 13.5047 12.8863C13.5048 12.8863 13.5048 12.8863 13.5048 12.8863C13.5048 12.8862 13.5049 12.8862 13.5049 12.8861C13.505 12.886 13.5052 12.8859 13.5053 12.8857C13.5056 12.8854 13.506 12.8849 13.5065 12.8844C13.5075 12.8833 13.5088 12.8818 13.5106 12.8799C13.514 12.876 13.5189 12.8706 13.525 12.8638C13.5372 12.8502 13.5543 12.8309 13.5746 12.8076C13.6149 12.7616 13.6694 12.6982 13.7234 12.6317L12.9471 12.0013ZM14.3857 7.94286C14.3857 9.48168 13.8469 10.8933 12.9471 12.0013L13.7234 12.6317C14.7626 11.352 15.3857 9.71951 15.3857 7.94286H14.3857ZM7.94286 1.5C11.5011 1.5 14.3857 4.38457 14.3857 7.94286H15.3857C15.3857 3.83228 12.0534 0.5 7.94286 0.5V1.5ZM1.5 7.94286C1.5 4.38457 4.38457 1.5 7.94286 1.5V0.5C3.83228 0.5 0.5 3.83228 0.5 7.94286H1.5ZM7.94286 14.3857C4.38457 14.3857 1.5 11.5011 1.5 7.94286H0.5C0.5 12.0534 3.83228 15.3857 7.94286 15.3857V14.3857ZM12.0659 12.8939C10.9484 13.8256 9.51171 14.3857 7.94286 14.3857V15.3857C9.75429 15.3857 11.4157 14.738 12.7063 13.662L12.0659 12.8939ZM12.5515 13.1342C12.2131 12.766 12.2132 12.766 12.2132 12.766C12.2132 12.766 12.2132 12.766 12.2132 12.766C12.2132 12.766 12.2132 12.7659 12.2132 12.7659C12.2132 12.7659 12.2133 12.7659 12.2133 12.7659C12.2133 12.7659 12.2133 12.7659 12.2133 12.7659C12.2133 12.7659 12.2132 12.7659 12.2131 12.7661C12.2128 12.7663 12.2123 12.7668 12.2115 12.7675C12.21 12.7689 12.2074 12.7712 12.204 12.7743C12.1972 12.7805 12.1868 12.7898 12.1735 12.8015C12.1469 12.825 12.1093 12.8577 12.0659 12.8939L12.7063 13.662C12.7587 13.6183 12.8038 13.5791 12.8359 13.5507C12.852 13.5364 12.865 13.5248 12.8742 13.5165C12.8788 13.5124 12.8824 13.509 12.8851 13.5066C12.8864 13.5055 12.8874 13.5045 12.8882 13.5038C12.8886 13.5034 12.8889 13.5031 12.8892 13.5029C12.8893 13.5028 12.8894 13.5026 12.8895 13.5026C12.8896 13.5025 12.8896 13.5025 12.8897 13.5024C12.8897 13.5024 12.8897 13.5024 12.8897 13.5024C12.8897 13.5024 12.8897 13.5024 12.8897 13.5024C12.8898 13.5024 12.8898 13.5023 12.5515 13.1342ZM13.1331 12.7896C12.8852 12.5418 12.4793 12.5285 12.2186 12.7611L12.8843 13.5073C12.8077 13.5756 12.7197 13.5969 12.6495 13.5947C12.5777 13.5924 12.4941 13.5649 12.4259 13.4967L13.1331 12.7896ZM18.9146 18.5711L13.1331 12.7896L12.4259 13.4967L18.2075 19.2782L18.9146 18.5711ZM18.5711 18.5711C18.666 18.4763 18.8197 18.4763 18.9146 18.5711L18.2075 19.2782C18.5032 19.5739 18.9826 19.5739 19.2782 19.2782L18.5711 18.5711ZM18.5711 18.9146C18.4763 18.8197 18.4763 18.666 18.5711 18.5711L19.2782 19.2782C19.5739 18.9826 19.5739 18.5032 19.2782 18.2075L18.5711 18.9146ZM12.7896 13.1331L18.5711 18.9146L19.2782 18.2075L13.4967 12.4259L12.7896 13.1331ZM7.94284 14.8714C11.7694 14.8714 14.8714 11.7694 14.8714 7.94284H13.8714C13.8714 11.2171 11.2171 13.8714 7.94284 13.8714V14.8714ZM1.01427 7.94284C1.01427 11.7694 4.1163 14.8714 7.94284 14.8714V13.8714C4.66858 13.8714 2.01427 11.2171 2.01427 7.94284H1.01427ZM7.94284 1.01427C4.1163 1.01427 1.01427 4.1163 1.01427 7.94284H2.01427C2.01427 4.66858 4.66858 2.01427 7.94284 2.01427V1.01427ZM14.8714 7.94284C14.8714 4.1163 11.7694 1.01427 7.94284 1.01427V2.01427C11.2171 2.01427 13.8714 4.66858 13.8714 7.94284H14.8714Z" fill="#4F4F4F"/>
</svg>
